<svg width="25" height="25" viewBox="0 0 25 25" fill="none" xmlns="http://www.w3.org/2000/svg">
<g clip-path="url(#clip0_78_551)">
<path fill-rule="evenodd" clip-rule="evenodd" d="M5.37881 12.5C5.37881 11.7061 5.51066 10.945 5.74599 10.2311L1.62682 7.08557C0.824012 8.71557 0.371704 10.5522 0.371704 12.5C0.371704 14.4461 0.823456 16.2817 1.62515 17.9106L5.7421 14.7589C5.50899 14.0483 5.37881 13.29 5.37881 12.5Z" fill="#FBBC05"/>
<path fill-rule="evenodd" clip-rule="evenodd" d="M12.6113 5.27777C14.336 5.27777 15.8937 5.88888 17.1177 6.88888L20.6783 3.33333C18.5086 1.44444 15.7268 0.277771 12.6113 0.277771C7.77444 0.277771 3.61743 3.04388 1.62683 7.08555L5.74601 10.2311C6.69513 7.34999 9.40063 5.27777 12.6113 5.27777Z" fill="#EB4335"/>
<path fill-rule="evenodd" clip-rule="evenodd" d="M12.6113 19.7222C9.40063 19.7222 6.69513 17.65 5.74601 14.7689L1.62683 17.9139C3.61743 21.9561 7.77444 24.7222 12.6113 24.7222C15.5966 24.7222 18.4468 23.6622 20.5859 21.6761L16.676 18.6533C15.5727 19.3483 14.1835 19.7222 12.6113 19.7222Z" fill="#34A853"/>
<path fill-rule="evenodd" clip-rule="evenodd" d="M24.2945 12.5C24.2945 11.7778 24.1832 11 24.0163 10.2778H12.6113V15H19.1761C18.8479 16.61 17.9544 17.8478 16.6759 18.6533L20.5859 21.6761C22.833 19.5905 24.2945 16.4839 24.2945 12.5Z" fill="#4285F4"/>
</g>
<defs>
<clipPath id="clip0_78_551">
<rect width="25" height="25" fill="white"/>
</clipPath>
</defs>
</svg>
