<svg width="46" height="34" viewBox="0 0 46 34" fill="none" xmlns="http://www.w3.org/2000/svg">
<path d="M42.2876 0H3.55096C1.58975 0 0 1.58954 0 3.55075V30.0106C0 31.9716 1.58975 33.5614 3.55096 33.5614H42.2876C44.2488 33.5614 45.8385 31.9716 45.8385 30.0106V3.55098C45.8385 1.58954 44.2488 0 42.2876 0ZM13.7331 7.72639C16.2826 7.72639 18.3501 10.1669 18.3501 13.1785C18.3501 16.1899 16.2826 18.6309 13.7331 18.6309C11.1835 18.6309 9.11696 16.1899 9.11696 13.1785C9.11673 10.1669 11.1835 7.72639 13.7331 7.72639ZM21.6161 25.0164C21.2637 25.4835 20.7136 25.7575 20.1294 25.7575H7.1776C6.59317 25.7575 6.04347 25.4829 5.69157 25.0169C5.34036 24.55 5.22721 23.9448 5.38821 23.3839C5.98759 21.2927 7.36275 19.5316 9.17929 18.4221C9.5305 18.2075 9.98016 18.2494 10.2858 18.5249C11.2424 19.3888 12.4356 19.9047 13.7328 19.9047C15.0052 19.9047 16.177 19.4079 17.124 18.5737C17.4331 18.3016 17.8848 18.2661 18.2328 18.4856C19.9978 19.5983 21.3307 21.3323 21.9183 23.3839C22.0798 23.9451 21.9673 24.5497 21.6161 25.0164ZM39.0314 25.6581H27.7633C26.9399 25.6581 26.2727 24.9909 26.2727 24.1673C26.2727 23.3441 26.9399 22.6769 27.7633 22.6769H39.0314C39.8544 22.6769 40.5218 23.3441 40.5218 24.1673C40.5218 24.9907 39.8544 25.6581 39.0314 25.6581ZM39.0314 18.2116H27.7633C26.9399 18.2116 26.2727 17.5444 26.2727 16.721C26.2727 15.8978 26.9399 15.2306 27.7633 15.2306H39.0314C39.8544 15.2306 40.5218 15.8978 40.5218 16.721C40.5218 17.5442 39.8544 18.2116 39.0314 18.2116ZM39.0314 10.7651H27.7633C26.9399 10.7651 26.2727 10.0979 26.2727 9.27499C26.2727 8.45136 26.9399 7.78412 27.7633 7.78412H39.0314C39.8544 7.78412 40.5218 8.45136 40.5218 9.27499C40.5218 10.0977 39.8544 10.7651 39.0314 10.7651Z" fill="#F6B758"/>
</svg>
